<svg xmlns="http://www.w3.org/2000/svg" viewBox="0 0 512 512"><g data-name="Layer 16"><path fill="#e2e8f0" d="M313.882 296.629V118.281A57.882 57.882 0 0 0 256 60.4a57.882 57.882 0 0 0-57.881 57.882v178.347a88.309 88.309 0 1 0 115.763 0Z"/><path fill="#fff" d="M256 83.393a57.882 57.882 0 0 1 57.882 57.882v-22.994a57.882 57.882 0 1 0-115.763 0v22.994A57.882 57.882 0 0 1 256 83.393Z"/><path fill="#abbbc9" d="M256 360.536a88.256 88.256 0 0 1-75.666-42.765 88.309 88.309 0 1 0 151.332 0A88.256 88.256 0 0 1 256 360.536Z"/><path fill="#abbbc9" d="M285.916 321.211V121.4A29.915 29.915 0 0 0 256 91.486a29.915 29.915 0 0 0-29.915 29.914v199.81a51.642 51.642 0 1 0 59.831 0Z"/><path fill="#34495e" d="M285.916 321.211v-44.623h-59.831v44.623a51.642 51.642 0 1 0 59.831 0Z"/><path fill="#51738e" d="M226.085 276.588h59.83v15.729h-59.83z"/><path fill="#162028" d="M307.642 363.293a51.441 51.441 0 0 0-3.015-17.353 88.3 88.3 0 0 1-97.254 0 51.637 51.637 0 1 0 100.269 17.353Z"/><circle cx="299.771" cy="138.942" r="9.408" fill="#fff"/><circle cx="296.54" cy="119.179" r="6.176" fill="#fff"/><path d="M318.882 294.388V118.281a62.881 62.881 0 1 0-125.762 0v176.107a93.308 93.308 0 1 0 125.762 0ZM256 446.6a83.286 83.286 0 0 1-54.6-146.2 5 5 0 0 0 1.721-3.774V118.281a52.881 52.881 0 1 1 105.762 0v178.348a5 5 0 0 0 1.717 3.771A83.287 83.287 0 0 1 256 446.6Z"/><path d="M290.915 318.708V121.4a34.915 34.915 0 0 0-69.83 0v197.308a56.642 56.642 0 1 0 69.83 0ZM256 96.486a24.943 24.943 0 0 1 24.915 24.914v149.817h-49.83V121.4A24.943 24.943 0 0 1 256 96.486Zm0 313.448a46.633 46.633 0 0 1-27.014-84.65 5 5 0 0 0 2.1-4.073v-39.994h49.83v39.994a5 5 0 0 0 2.1 4.073A46.633 46.633 0 0 1 256 409.934Z"/></g></svg>